<svg xmlns="http://www.w3.org/2000/svg" xmlns:xlink="http://www.w3.org/1999/xlink" width="250" zoomAndPan="magnify" viewBox="0 0 187.5 74.999997" height="100" preserveAspectRatio="xMidYMid meet" version="1.0"><defs><clipPath id="eb21990655"><path d="M 0 0.101562 L 187 0.101562 L 187 74.898438 L 0 74.898438 Z M 0 0.101562 " clip-rule="nonzero"/></clipPath><clipPath id="f5b474bdd6"><path d="M 1.289062 28.992188 L 113.691406 28.992188 L 113.691406 46.15625 L 1.289062 46.15625 Z M 1.289062 28.992188 " clip-rule="nonzero"/></clipPath><clipPath id="fb9aacd990"><path d="M 140.230469 22.9375 L 169.503906 22.9375 L 169.503906 52.210938 L 140.230469 52.210938 Z M 140.230469 22.9375 " clip-rule="nonzero"/></clipPath><clipPath id="5adb716d01"><path d="M 123.820312 26 L 130 26 L 130 31 L 123.820312 31 Z M 123.820312 26 " clip-rule="nonzero"/></clipPath><clipPath id="32612873de"><path d="M 147 6.53125 L 153 6.53125 L 153 12 L 147 12 Z M 147 6.53125 " clip-rule="nonzero"/></clipPath><clipPath id="aa8d88a2f7"><path d="M 158 6.53125 L 164 6.53125 L 164 13 L 158 13 Z M 158 6.53125 " clip-rule="nonzero"/></clipPath><clipPath id="0a2b28b9df"><path d="M 180 25 L 185.917969 25 L 185.917969 31 L 180 31 Z M 180 25 " clip-rule="nonzero"/></clipPath><clipPath id="8be7a42271"><path d="M 148 63 L 153 63 L 153 68.613281 L 148 68.613281 Z M 148 63 " clip-rule="nonzero"/></clipPath><clipPath id="53658cffde"><path d="M 157 63 L 163 63 L 163 68.613281 L 157 68.613281 Z M 157 63 " clip-rule="nonzero"/></clipPath><clipPath id="5c3b5e0c9f"><path d="M 181 36 L 185.917969 36 L 185.917969 41 L 181 41 Z M 181 36 " clip-rule="nonzero"/></clipPath></defs><g clip-path="url(#eb21990655)"><path fill="#ffffff" d="M 0 0.101562 L 187.5 0.101562 L 187.5 82.601562 L 0 82.601562 Z M 0 0.101562 " fill-opacity="1" fill-rule="nonzero"/><path fill="#ffffff" d="M 0 0.101562 L 187.5 0.101562 L 187.5 75.101562 L 0 75.101562 Z M 0 0.101562 " fill-opacity="1" fill-rule="nonzero"/><path fill="#ffffff" d="M 0 0.101562 L 187.5 0.101562 L 187.5 75.101562 L 0 75.101562 Z M 0 0.101562 " fill-opacity="1" fill-rule="nonzero"/><rect x="-18.75" width="225" fill="#ffffff" y="-7.5" height="89.999996" fill-opacity="1"/></g><g clip-path="url(#f5b474bdd6)"><path fill="#000000" d="M 13.242188 30.070312 C 13.199219 30.347656 13.175781 30.707031 13.175781 31.148438 C 13.175781 32.011719 13.28125 32.6875 13.484375 33.171875 L 13.132812 33.171875 C 12.972656 32.863281 12.855469 32.460938 12.78125 31.960938 C 12.679688 31.433594 12.539062 31.019531 12.363281 30.714844 C 12.1875 30.417969 11.828125 30.164062 11.285156 29.960938 C 10.742188 29.753906 9.925781 29.652344 8.84375 29.652344 C 8.652344 29.652344 8.4375 29.667969 8.203125 29.695312 L 8.203125 44.394531 C 8.203125 44.6875 8.28125 44.910156 8.4375 45.0625 C 8.589844 45.21875 8.804688 45.296875 9.082031 45.296875 C 9.320312 45.296875 9.574219 45.253906 9.855469 45.164062 L 9.855469 45.714844 L 4.902344 45.714844 L 4.902344 45.164062 C 5.195312 45.253906 5.453125 45.296875 5.671875 45.296875 C 5.953125 45.296875 6.167969 45.21875 6.324219 45.0625 C 6.476562 44.910156 6.554688 44.6875 6.554688 44.394531 L 6.554688 29.695312 C 6.320312 29.667969 6.113281 29.652344 5.9375 29.652344 C 4.851562 29.652344 4.039062 29.753906 3.496094 29.960938 C 2.953125 30.164062 2.59375 30.417969 2.417969 30.714844 C 2.242188 31.019531 2.101562 31.433594 2 31.960938 C 1.925781 32.460938 1.808594 32.863281 1.644531 33.171875 L 1.292969 33.171875 C 1.5 32.6875 1.601562 32.011719 1.601562 31.148438 C 1.601562 30.707031 1.582031 30.347656 1.535156 30.070312 L 1.46875 29.429688 L 13.308594 29.429688 Z M 20.902344 46.15625 C 19.417969 46.15625 18.136719 45.761719 17.050781 44.976562 C 15.964844 44.191406 15.136719 43.140625 14.570312 41.820312 C 14.007812 40.5 13.71875 39.046875 13.703125 37.464844 C 13.691406 36.214844 13.917969 34.941406 14.386719 33.644531 C 14.855469 32.347656 15.613281 31.246094 16.652344 30.34375 C 17.695312 29.441406 19.039062 28.992188 20.679688 28.992188 C 22.339844 28.992188 23.699219 29.417969 24.761719 30.277344 C 25.824219 31.136719 26.59375 32.210938 27.070312 33.503906 C 27.550781 34.792969 27.789062 36.113281 27.789062 37.464844 C 27.789062 39.0625 27.53125 40.515625 27.019531 41.828125 C 26.503906 43.144531 25.730469 44.191406 24.695312 44.976562 C 23.660156 45.761719 22.398438 46.15625 20.902344 46.15625 Z M 20.902344 45.714844 C 22.675781 45.714844 23.960938 44.949219 24.761719 43.414062 C 25.5625 41.882812 25.953125 39.898438 25.941406 37.464844 C 25.925781 36.203125 25.730469 34.953125 25.355469 33.722656 C 24.980469 32.488281 24.402344 31.464844 23.617188 30.652344 C 22.832031 29.835938 21.855469 29.429688 20.679688 29.429688 C 19.492188 29.429688 18.515625 29.875 17.753906 30.761719 C 16.992188 31.648438 16.4375 32.730469 16.089844 34.007812 C 15.746094 35.285156 15.574219 36.515625 15.574219 37.707031 C 15.574219 39.203125 15.769531 40.550781 16.15625 41.753906 C 16.546875 42.957031 17.140625 43.917969 17.9375 44.636719 C 18.738281 45.355469 19.726562 45.714844 20.902344 45.714844 Z M 37.050781 46.15625 C 36.082031 46.15625 35.183594 45.972656 34.355469 45.605469 C 33.527344 45.238281 32.835938 44.632812 32.285156 43.789062 C 31.738281 42.945312 31.449219 41.847656 31.417969 40.5 L 31.417969 30.75 C 31.417969 30.457031 31.339844 30.234375 31.183594 30.082031 C 31.03125 29.925781 30.816406 29.847656 30.539062 29.847656 C 30.304688 29.847656 30.046875 29.894531 29.769531 29.980469 L 29.769531 29.429688 L 30.605469 29.453125 C 31.339844 29.484375 31.894531 29.496094 32.277344 29.496094 C 32.660156 29.496094 33.199219 29.484375 33.90625 29.453125 L 34.71875 29.429688 L 34.71875 29.980469 C 34.441406 29.894531 34.183594 29.847656 33.949219 29.847656 C 33.671875 29.847656 33.453125 29.925781 33.296875 30.082031 C 33.144531 30.234375 33.070312 30.457031 33.070312 30.75 L 33.070312 40.234375 C 33.070312 41.527344 33.273438 42.582031 33.683594 43.40625 C 34.097656 44.226562 34.609375 44.820312 35.226562 45.1875 C 35.839844 45.554688 36.480469 45.738281 37.140625 45.738281 C 38.769531 45.738281 39.898438 45.164062 40.527344 44.019531 C 41.160156 42.875 41.476562 41.5625 41.476562 40.082031 L 41.476562 30.730469 C 41.476562 30.449219 41.351562 30.230469 41.109375 30.070312 C 40.867188 29.90625 40.558594 29.828125 40.175781 29.828125 C 39.882812 29.828125 39.597656 29.871094 39.320312 29.960938 L 39.320312 29.429688 L 44.003906 29.429688 L 44.003906 29.960938 C 43.710938 29.871094 43.441406 29.828125 43.191406 29.828125 C 42.867188 29.828125 42.609375 29.90625 42.40625 30.070312 C 42.210938 30.230469 42.113281 30.449219 42.113281 30.730469 L 42.113281 40.234375 C 42.097656 41.320312 41.902344 42.3125 41.527344 43.207031 C 41.15625 44.101562 40.589844 44.816406 39.832031 45.351562 C 39.078125 45.886719 38.152344 46.15625 37.050781 46.15625 Z M 52.363281 46.15625 C 51.117188 46.15625 49.933594 45.761719 48.8125 44.976562 C 47.6875 44.191406 46.789062 43.140625 46.113281 41.820312 C 45.4375 40.5 45.101562 39.085938 45.101562 37.574219 C 45.101562 35.929688 45.425781 34.457031 46.070312 33.148438 C 46.714844 31.84375 47.59375 30.824219 48.710938 30.089844 C 49.824219 29.359375 51.066406 28.992188 52.429688 28.992188 C 53.191406 28.992188 54.070312 29.195312 55.0625 29.609375 C 56.050781 30.019531 56.742188 30.488281 57.136719 31.015625 L 57.46875 29.367188 L 57.84375 29.367188 L 57.84375 34.273438 L 57.378906 34.273438 C 57.378906 33.507812 57.148438 32.753906 56.6875 32.007812 C 56.226562 31.257812 55.589844 30.640625 54.785156 30.15625 C 53.976562 29.671875 53.089844 29.429688 52.121094 29.429688 C 51.125 29.429688 50.234375 29.785156 49.457031 30.488281 C 48.679688 31.191406 48.070312 32.15625 47.632812 33.378906 C 47.191406 34.605469 46.972656 35.972656 46.972656 37.484375 C 46.972656 38.9375 47.1875 40.292969 47.621094 41.546875 C 48.054688 42.800781 48.714844 43.808594 49.601562 44.570312 C 50.488281 45.332031 51.570312 45.714844 52.847656 45.714844 C 53.785156 45.714844 54.644531 45.445312 55.421875 44.902344 C 56.199219 44.359375 56.777344 43.652344 57.160156 42.789062 C 57.203125 42.6875 57.292969 42.386719 57.425781 41.886719 C 57.527344 41.445312 57.632812 41.074219 57.746094 40.773438 C 57.855469 40.472656 58.003906 40.207031 58.195312 39.972656 L 58.503906 39.972656 C 58.265625 40.175781 58.101562 40.558594 58.007812 41.117188 C 57.914062 41.671875 57.863281 42.445312 57.863281 43.425781 C 57.863281 43.777344 57.582031 44.171875 57.019531 44.601562 C 56.453125 45.035156 55.742188 45.402344 54.882812 45.703125 C 54.023438 46.003906 53.183594 46.15625 52.363281 46.15625 Z M 74.585938 29.980469 C 74.292969 29.894531 74.039062 29.847656 73.816406 29.847656 C 73.539062 29.847656 73.320312 29.925781 73.167969 30.082031 C 73.011719 30.234375 72.9375 30.457031 72.9375 30.75 L 72.9375 44.394531 C 72.9375 44.6875 73.011719 44.910156 73.167969 45.0625 C 73.320312 45.21875 73.539062 45.296875 73.816406 45.296875 C 74.050781 45.296875 74.308594 45.253906 74.585938 45.164062 L 74.585938 45.714844 L 69.636719 45.714844 L 69.636719 45.164062 C 69.929688 45.253906 70.1875 45.296875 70.40625 45.296875 C 70.683594 45.296875 70.902344 45.21875 71.058594 45.0625 C 71.210938 44.910156 71.285156 44.6875 71.285156 44.394531 L 71.285156 36.847656 L 63.125 36.847656 L 63.125 44.394531 C 63.125 44.6875 63.199219 44.910156 63.355469 45.0625 C 63.507812 45.21875 63.730469 45.296875 64.023438 45.296875 C 64.246094 45.296875 64.496094 45.253906 64.773438 45.164062 L 64.773438 45.714844 L 59.824219 45.714844 L 59.824219 45.164062 C 60.101562 45.253906 60.359375 45.296875 60.59375 45.296875 C 60.871094 45.296875 61.089844 45.21875 61.242188 45.0625 C 61.398438 44.910156 61.472656 44.6875 61.472656 44.394531 L 61.472656 30.75 C 61.472656 30.457031 61.398438 30.234375 61.242188 30.082031 C 61.089844 29.925781 60.871094 29.847656 60.59375 29.847656 C 60.359375 29.847656 60.101562 29.894531 59.824219 29.980469 L 59.824219 29.429688 L 64.773438 29.429688 L 64.773438 29.980469 C 64.496094 29.894531 64.238281 29.847656 64.003906 29.847656 C 63.726562 29.847656 63.507812 29.925781 63.355469 30.082031 C 63.199219 30.234375 63.125 30.457031 63.125 30.75 L 63.125 36.40625 L 71.285156 36.40625 L 71.285156 30.75 C 71.285156 30.457031 71.210938 30.234375 71.058594 30.082031 C 70.902344 29.925781 70.683594 29.847656 70.40625 29.847656 C 70.1875 29.847656 69.929688 29.894531 69.636719 29.980469 L 69.636719 29.429688 L 74.585938 29.429688 Z M 81.585938 46.15625 C 80.515625 46.15625 79.660156 45.972656 79.019531 45.613281 C 78.382812 45.253906 77.828125 44.71875 77.359375 44 L 77.050781 45.296875 L 76.613281 45.296875 L 76.613281 39.3125 L 77.207031 39.3125 C 77.207031 41.304688 77.554688 42.882812 78.25 44.042969 C 78.949219 45.203125 79.984375 45.78125 81.363281 45.78125 C 82.011719 45.78125 82.574219 45.601562 83.058594 45.242188 C 83.542969 44.882812 83.910156 44.410156 84.160156 43.824219 C 84.410156 43.234375 84.535156 42.613281 84.535156 41.953125 C 84.535156 41.144531 84.351562 40.472656 83.992188 39.9375 C 83.632812 39.402344 83.191406 38.980469 82.664062 38.671875 C 82.136719 38.367188 81.4375 38.027344 80.574219 37.660156 C 79.679688 37.28125 78.964844 36.929688 78.4375 36.613281 C 77.910156 36.300781 77.464844 35.875 77.105469 35.335938 C 76.746094 34.804688 76.566406 34.125 76.566406 33.304688 C 76.566406 32.484375 76.761719 31.742188 77.148438 31.082031 C 77.539062 30.421875 78.066406 29.90625 78.734375 29.542969 C 79.402344 29.175781 80.15625 28.992188 80.992188 28.992188 C 81.503906 28.992188 82.011719 29.078125 82.519531 29.253906 C 83.027344 29.429688 83.457031 29.65625 83.808594 29.925781 C 84.160156 30.195312 84.371094 30.464844 84.445312 30.730469 L 84.6875 29.035156 L 85.105469 29.035156 L 85.105469 33.414062 L 84.601562 33.414062 C 84.601562 32.753906 84.484375 32.125 84.246094 31.523438 C 84.011719 30.921875 83.648438 30.429688 83.15625 30.046875 C 82.667969 29.667969 82.0625 29.476562 81.34375 29.476562 C 80.417969 29.476562 79.667969 29.785156 79.085938 30.398438 C 78.507812 31.015625 78.21875 31.875 78.21875 32.972656 C 78.21875 33.605469 78.378906 34.136719 78.703125 34.566406 C 79.023438 35 79.425781 35.359375 79.898438 35.636719 C 80.378906 35.914062 81.019531 36.238281 81.828125 36.605469 C 82.765625 37.03125 83.523438 37.421875 84.101562 37.78125 C 84.683594 38.140625 85.175781 38.625 85.578125 39.230469 C 85.980469 39.84375 86.183594 40.601562 86.183594 41.511719 C 86.183594 42.246094 85.972656 42.972656 85.546875 43.699219 C 85.121094 44.425781 84.554688 45.019531 83.851562 45.472656 C 83.148438 45.925781 82.390625 46.15625 81.585938 46.15625 Z M 100.3125 44.394531 C 100.515625 44.71875 100.710938 44.953125 100.890625 45.097656 C 101.078125 45.246094 101.300781 45.320312 101.566406 45.320312 C 101.785156 45.320312 102.042969 45.265625 102.335938 45.164062 L 102.335938 45.714844 L 97.03125 45.714844 L 97.03125 45.164062 C 97.324219 45.253906 97.582031 45.296875 97.800781 45.296875 C 98.050781 45.296875 98.253906 45.25 98.40625 45.152344 C 98.5625 45.058594 98.640625 44.929688 98.640625 44.769531 C 98.640625 44.652344 98.59375 44.527344 98.507812 44.394531 L 93.488281 36.273438 L 91.464844 38.476562 L 91.464844 44.394531 C 91.464844 44.6875 91.542969 44.910156 91.695312 45.0625 C 91.851562 45.21875 92.066406 45.296875 92.34375 45.296875 C 92.582031 45.296875 92.835938 45.253906 93.117188 45.164062 L 93.117188 45.714844 L 88.164062 45.714844 L 88.164062 45.164062 C 88.441406 45.253906 88.699219 45.296875 88.933594 45.296875 C 89.214844 45.296875 89.429688 45.21875 89.582031 45.0625 C 89.738281 44.910156 89.816406 44.6875 89.816406 44.394531 L 89.816406 30.75 C 89.816406 30.457031 89.738281 30.234375 89.582031 30.082031 C 89.429688 29.925781 89.214844 29.847656 88.933594 29.847656 C 88.699219 29.847656 88.441406 29.894531 88.164062 29.980469 L 88.164062 29.429688 L 93.117188 29.429688 L 93.117188 29.980469 C 92.835938 29.894531 92.582031 29.847656 92.34375 29.847656 C 92.066406 29.847656 91.851562 29.925781 91.695312 30.082031 C 91.542969 30.234375 91.464844 30.457031 91.464844 30.75 L 91.464844 37.859375 L 97.757812 30.75 C 97.890625 30.589844 97.957031 30.449219 97.957031 30.332031 C 97.957031 30.1875 97.898438 30.070312 97.78125 29.980469 C 97.664062 29.894531 97.5 29.847656 97.296875 29.847656 C 97.105469 29.847656 96.894531 29.894531 96.660156 29.980469 L 96.660156 29.429688 L 101.082031 29.429688 L 101.082031 29.980469 C 100.832031 29.90625 100.613281 29.871094 100.421875 29.871094 C 100.113281 29.871094 99.804688 29.941406 99.496094 30.082031 C 99.1875 30.21875 98.910156 30.414062 98.660156 30.664062 L 94.65625 35 Z M 104.421875 45.164062 C 104.714844 45.253906 104.964844 45.296875 105.167969 45.296875 C 105.742188 45.296875 106.027344 44.996094 106.027344 44.394531 L 106.027344 38.101562 L 102.15625 30.75 C 101.992188 30.445312 101.816406 30.210938 101.617188 30.054688 C 101.417969 29.902344 101.179688 29.828125 100.902344 29.828125 C 100.753906 29.828125 100.496094 29.878906 100.128906 29.980469 L 100.128906 29.429688 L 105.433594 29.429688 L 105.433594 29.980469 C 105.082031 29.878906 104.808594 29.828125 104.621094 29.828125 C 104.386719 29.828125 104.199219 29.871094 104.0625 29.960938 C 103.921875 30.046875 103.847656 30.179688 103.847656 30.355469 C 103.847656 30.488281 103.886719 30.621094 103.960938 30.75 L 107.480469 37.574219 L 110.980469 31.300781 L 111.242188 30.796875 C 111.316406 30.664062 111.351562 30.53125 111.351562 30.398438 C 111.351562 30.207031 111.257812 30.0625 111.066406 29.960938 C 110.875 29.855469 110.632812 29.804688 110.339844 29.804688 C 110.046875 29.804688 109.726562 29.863281 109.371094 29.980469 L 109.371094 29.429688 L 113.6875 29.429688 L 113.6875 29.980469 C 113.421875 29.894531 113.1875 29.847656 112.980469 29.847656 C 112.601562 29.847656 112.308594 30.003906 112.101562 30.3125 C 111.425781 31.410156 110.574219 32.921875 109.546875 34.84375 C 108.785156 36.265625 108.191406 37.351562 107.765625 38.101562 L 107.765625 44.394531 C 107.765625 44.996094 108.050781 45.296875 108.625 45.296875 C 108.84375 45.296875 109.09375 45.253906 109.371094 45.164062 L 109.371094 45.714844 L 104.421875 45.714844 Z M 104.421875 45.164062 " fill-opacity="1" fill-rule="nonzero"/></g><g clip-path="url(#fb9aacd990)"><path fill="#000000" d="M 169.179688 36.925781 C 167.179688 35.417969 165.015625 34.652344 162.75 34.652344 C 162.699219 34.652344 162.652344 34.652344 162.601562 34.652344 C 162.554688 34.652344 162.503906 34.652344 162.453125 34.652344 C 162.253906 34.652344 162.058594 34.667969 161.859375 34.679688 C 162.046875 34.515625 162.226562 34.347656 162.402344 34.167969 C 164.066406 32.550781 165.089844 30.445312 165.445312 27.910156 C 165.484375 27.65625 165.398438 27.402344 165.21875 27.222656 C 165.035156 27.042969 164.78125 26.957031 164.53125 26.992188 C 161.996094 27.351562 159.890625 28.375 158.273438 30.039062 C 158.09375 30.214844 157.929688 30.394531 157.765625 30.578125 C 157.78125 30.332031 157.789062 30.085938 157.789062 29.839844 C 157.820312 27.519531 157.058594 25.304688 155.515625 23.261719 C 155.363281 23.054688 155.125 22.9375 154.867188 22.9375 C 154.613281 22.9375 154.375 23.054688 154.21875 23.261719 C 152.679688 25.304688 151.917969 27.519531 151.949219 29.839844 C 151.945312 30.085938 151.957031 30.332031 151.96875 30.578125 C 151.808594 30.394531 151.640625 30.214844 151.464844 30.039062 C 149.847656 28.375 147.742188 27.351562 145.207031 26.992188 C 144.953125 26.957031 144.699219 27.042969 144.519531 27.222656 C 144.339844 27.402344 144.253906 27.660156 144.289062 27.910156 C 144.648438 30.445312 145.671875 32.550781 147.335938 34.167969 C 147.507812 34.347656 147.691406 34.515625 147.875 34.679688 C 147.679688 34.667969 147.480469 34.652344 147.28125 34.652344 C 147.230469 34.652344 147.183594 34.652344 147.132812 34.652344 C 147.085938 34.652344 147.035156 34.652344 146.984375 34.652344 C 144.722656 34.652344 142.558594 35.417969 140.554688 36.925781 C 140.351562 37.078125 140.230469 37.316406 140.230469 37.574219 C 140.230469 37.828125 140.351562 38.066406 140.554688 38.222656 C 142.558594 39.730469 144.722656 40.492188 146.988281 40.492188 C 147.035156 40.492188 147.085938 40.492188 147.132812 40.492188 C 147.183594 40.492188 147.238281 40.488281 147.28125 40.492188 C 147.480469 40.492188 147.679688 40.476562 147.878906 40.46875 C 147.691406 40.632812 147.511719 40.796875 147.335938 40.976562 C 145.671875 42.59375 144.648438 44.699219 144.289062 47.234375 C 144.253906 47.488281 144.339844 47.742188 144.519531 47.921875 C 144.671875 48.074219 144.878906 48.160156 145.09375 48.160156 C 145.132812 48.160156 145.167969 48.15625 145.207031 48.152344 C 147.742188 47.792969 149.847656 46.769531 151.464844 45.105469 C 151.640625 44.933594 151.808594 44.75 151.972656 44.566406 C 151.957031 44.8125 151.945312 45.058594 151.949219 45.304688 C 151.917969 47.625 152.679688 49.839844 154.21875 51.886719 C 154.375 52.089844 154.613281 52.210938 154.871094 52.210938 C 155.125 52.210938 155.363281 52.089844 155.519531 51.886719 C 157.058594 49.839844 157.820312 47.625 157.789062 45.304688 C 157.792969 45.058594 157.78125 44.8125 157.765625 44.570312 C 157.929688 44.75 158.097656 44.933594 158.273438 45.105469 C 159.890625 46.769531 161.996094 47.792969 164.53125 48.152344 C 164.566406 48.15625 164.605469 48.160156 164.644531 48.160156 C 164.855469 48.160156 165.066406 48.074219 165.21875 47.921875 C 165.398438 47.738281 165.484375 47.488281 165.449219 47.234375 C 165.089844 44.699219 164.066406 42.59375 162.402344 40.976562 C 162.226562 40.796875 162.046875 40.632812 161.859375 40.46875 C 162.058594 40.476562 162.257812 40.492188 162.457031 40.492188 C 162.503906 40.492188 162.554688 40.492188 162.601562 40.492188 C 162.652344 40.492188 162.699219 40.492188 162.75 40.492188 C 165.015625 40.492188 167.179688 39.730469 169.179688 38.222656 C 169.382812 38.066406 169.503906 37.828125 169.503906 37.574219 C 169.503906 37.316406 169.382812 37.078125 169.179688 36.925781 Z M 154.304688 37.347656 L 154.867188 36.785156 L 155.429688 37.347656 L 154.867188 37.90625 Z M 159.414062 31.199219 C 159.417969 31.191406 159.425781 31.1875 159.429688 31.179688 C 160.542969 30.027344 161.949219 29.238281 163.617188 28.820312 C 163.203125 30.488281 162.410156 31.894531 161.261719 33.011719 C 161.253906 33.015625 161.25 33.023438 161.242188 33.027344 C 160.128906 34.179688 158.722656 34.96875 157.054688 35.386719 C 157.472656 33.71875 158.261719 32.3125 159.414062 31.199219 Z M 153.574219 29.824219 C 153.546875 28.222656 153.980469 26.671875 154.867188 25.199219 C 155.753906 26.671875 156.1875 28.222656 156.164062 29.824219 C 156.164062 29.835938 156.164062 29.84375 156.164062 29.851562 C 156.1875 31.453125 155.753906 33.007812 154.867188 34.480469 C 153.980469 33.007812 153.546875 31.453125 153.574219 29.851562 C 153.574219 29.84375 153.574219 29.835938 153.574219 29.824219 Z M 146.117188 28.820312 C 147.785156 29.238281 149.191406 30.027344 150.304688 31.179688 C 150.3125 31.1875 150.316406 31.191406 150.324219 31.199219 C 151.472656 32.3125 152.265625 33.71875 152.679688 35.386719 C 151.011719 34.96875 149.605469 34.179688 148.492188 33.027344 C 148.488281 33.023438 148.480469 33.015625 148.472656 33.007812 C 147.324219 31.894531 146.535156 30.492188 146.117188 28.820312 Z M 147.144531 38.867188 C 147.140625 38.867188 147.136719 38.867188 147.132812 38.867188 C 147.128906 38.867188 147.125 38.867188 147.121094 38.867188 C 147.074219 38.867188 147.03125 38.867188 146.988281 38.867188 C 145.433594 38.867188 143.925781 38.433594 142.492188 37.574219 C 143.925781 36.710938 145.433594 36.277344 146.984375 36.277344 C 147.03125 36.277344 147.074219 36.277344 147.121094 36.277344 C 147.128906 36.277344 147.136719 36.277344 147.144531 36.277344 C 147.191406 36.277344 147.238281 36.277344 147.28125 36.277344 C 148.835938 36.277344 150.34375 36.710938 151.773438 37.574219 C 150.339844 38.433594 148.835938 38.867188 147.28125 38.867188 C 147.234375 38.867188 147.191406 38.867188 147.144531 38.867188 Z M 150.324219 43.949219 C 150.316406 43.953125 150.3125 43.957031 150.304688 43.964844 C 149.191406 45.117188 147.785156 45.90625 146.117188 46.324219 C 146.53125 44.65625 147.324219 43.25 148.472656 42.132812 C 148.480469 42.128906 148.488281 42.125 148.492188 42.117188 C 149.605469 40.964844 151.011719 40.175781 152.679688 39.757812 C 152.265625 41.425781 151.472656 42.832031 150.324219 43.949219 Z M 156.164062 45.320312 C 156.1875 46.921875 155.753906 48.472656 154.867188 49.949219 C 153.980469 48.472656 153.546875 46.921875 153.574219 45.320312 C 153.574219 45.308594 153.574219 45.300781 153.574219 45.292969 C 153.546875 43.691406 153.980469 42.140625 154.867188 40.664062 C 155.753906 42.140625 156.1875 43.691406 156.164062 45.292969 C 156.164062 45.300781 156.164062 45.308594 156.164062 45.320312 Z M 163.617188 46.324219 C 161.949219 45.90625 160.546875 45.117188 159.429688 43.964844 C 159.421875 43.960938 159.417969 43.953125 159.414062 43.949219 C 158.261719 42.832031 157.472656 41.425781 157.054688 39.757812 C 158.722656 40.175781 160.128906 40.964844 161.242188 42.117188 C 161.25 42.125 161.253906 42.128906 161.261719 42.132812 C 162.410156 43.25 163.203125 44.65625 163.617188 46.324219 Z M 162.75 38.867188 C 162.703125 38.867188 162.660156 38.867188 162.613281 38.867188 C 162.609375 38.867188 162.605469 38.867188 162.601562 38.867188 C 162.597656 38.867188 162.59375 38.867188 162.589844 38.867188 C 162.542969 38.867188 162.5 38.867188 162.453125 38.867188 C 160.898438 38.867188 159.394531 38.433594 157.960938 37.574219 C 159.394531 36.710938 160.898438 36.277344 162.453125 36.277344 C 162.5 36.277344 162.542969 36.277344 162.589844 36.277344 C 162.597656 36.277344 162.605469 36.277344 162.613281 36.277344 C 162.660156 36.277344 162.703125 36.277344 162.75 36.277344 C 164.304688 36.277344 165.8125 36.710938 167.242188 37.574219 C 165.808594 38.433594 164.304688 38.867188 162.75 38.867188 Z M 162.75 38.867188 " fill-opacity="1" fill-rule="nonzero"/></g><path fill="#000000" d="M 163.664062 37.574219 C 163.664062 37.714844 163.636719 37.847656 163.585938 37.980469 C 163.53125 38.109375 163.453125 38.226562 163.355469 38.324219 C 163.253906 38.425781 163.140625 38.5 163.007812 38.554688 C 162.878906 38.609375 162.742188 38.636719 162.601562 38.636719 C 162.460938 38.636719 162.324219 38.609375 162.195312 38.554688 C 162.0625 38.5 161.949219 38.425781 161.847656 38.324219 C 161.75 38.226562 161.671875 38.109375 161.617188 37.980469 C 161.566406 37.847656 161.539062 37.714844 161.539062 37.574219 C 161.539062 37.433594 161.566406 37.296875 161.617188 37.164062 C 161.671875 37.035156 161.75 36.921875 161.847656 36.820312 C 161.949219 36.722656 162.0625 36.644531 162.195312 36.589844 C 162.324219 36.535156 162.460938 36.507812 162.601562 36.507812 C 162.742188 36.507812 162.878906 36.535156 163.007812 36.589844 C 163.140625 36.644531 163.253906 36.722656 163.355469 36.820312 C 163.453125 36.921875 163.53125 37.035156 163.585938 37.164062 C 163.636719 37.296875 163.664062 37.433594 163.664062 37.574219 Z M 163.664062 37.574219 " fill-opacity="1" fill-rule="nonzero"/><path fill="#000000" d="M 148.199219 37.574219 C 148.199219 37.714844 148.171875 37.847656 148.117188 37.980469 C 148.0625 38.109375 147.984375 38.226562 147.886719 38.324219 C 147.785156 38.425781 147.671875 38.5 147.539062 38.554688 C 147.410156 38.609375 147.273438 38.636719 147.132812 38.636719 C 146.992188 38.636719 146.855469 38.609375 146.726562 38.554688 C 146.597656 38.5 146.480469 38.425781 146.382812 38.324219 C 146.28125 38.226562 146.207031 38.109375 146.152344 37.980469 C 146.097656 37.847656 146.070312 37.714844 146.070312 37.574219 C 146.070312 37.433594 146.097656 37.296875 146.152344 37.164062 C 146.207031 37.035156 146.28125 36.921875 146.382812 36.820312 C 146.480469 36.722656 146.597656 36.644531 146.726562 36.589844 C 146.855469 36.535156 146.992188 36.507812 147.132812 36.507812 C 147.273438 36.507812 147.410156 36.535156 147.539062 36.589844 C 147.671875 36.644531 147.785156 36.722656 147.886719 36.820312 C 147.984375 36.921875 148.0625 37.035156 148.117188 37.164062 C 148.171875 37.296875 148.199219 37.433594 148.199219 37.574219 Z M 148.199219 37.574219 " fill-opacity="1" fill-rule="nonzero"/><path fill="#000000" d="M 155.929688 45.308594 C 155.929688 45.449219 155.902344 45.582031 155.851562 45.714844 C 155.796875 45.84375 155.71875 45.960938 155.621094 46.058594 C 155.519531 46.160156 155.40625 46.234375 155.273438 46.289062 C 155.144531 46.34375 155.007812 46.371094 154.867188 46.371094 C 154.726562 46.371094 154.589844 46.34375 154.460938 46.289062 C 154.332031 46.234375 154.214844 46.160156 154.117188 46.058594 C 154.015625 45.960938 153.9375 45.84375 153.886719 45.714844 C 153.832031 45.582031 153.804688 45.449219 153.804688 45.308594 C 153.804688 45.164062 153.832031 45.03125 153.886719 44.898438 C 153.9375 44.769531 154.015625 44.65625 154.117188 44.554688 C 154.214844 44.457031 154.332031 44.378906 154.460938 44.324219 C 154.589844 44.269531 154.726562 44.242188 154.867188 44.242188 C 155.007812 44.242188 155.144531 44.269531 155.273438 44.324219 C 155.40625 44.378906 155.519531 44.457031 155.621094 44.554688 C 155.71875 44.65625 155.796875 44.769531 155.851562 44.898438 C 155.902344 45.03125 155.929688 45.164062 155.929688 45.308594 Z M 155.929688 45.308594 " fill-opacity="1" fill-rule="nonzero"/><path fill="#000000" d="M 155.929688 29.839844 C 155.929688 29.980469 155.902344 30.117188 155.851562 30.246094 C 155.796875 30.375 155.71875 30.492188 155.621094 30.589844 C 155.519531 30.691406 155.40625 30.765625 155.273438 30.820312 C 155.144531 30.875 155.007812 30.902344 154.867188 30.902344 C 154.726562 30.902344 154.589844 30.875 154.460938 30.820312 C 154.332031 30.765625 154.214844 30.691406 154.117188 30.589844 C 154.015625 30.492188 153.9375 30.375 153.886719 30.246094 C 153.832031 30.117188 153.804688 29.980469 153.804688 29.839844 C 153.804688 29.699219 153.832031 29.5625 153.886719 29.433594 C 153.9375 29.300781 154.015625 29.1875 154.117188 29.085938 C 154.214844 28.988281 154.332031 28.910156 154.460938 28.855469 C 154.589844 28.800781 154.726562 28.773438 154.867188 28.773438 C 155.007812 28.773438 155.144531 28.800781 155.273438 28.855469 C 155.40625 28.910156 155.519531 28.988281 155.621094 29.085938 C 155.71875 29.1875 155.796875 29.300781 155.851562 29.433594 C 155.902344 29.5625 155.929688 29.699219 155.929688 29.839844 Z M 155.929688 29.839844 " fill-opacity="1" fill-rule="nonzero"/><path fill="#000000" d="M 161.398438 43.042969 C 161.398438 43.183594 161.375 43.316406 161.320312 43.449219 C 161.265625 43.578125 161.1875 43.691406 161.089844 43.792969 C 160.988281 43.894531 160.875 43.96875 160.742188 44.023438 C 160.613281 44.078125 160.476562 44.105469 160.335938 44.105469 C 160.195312 44.105469 160.058594 44.078125 159.929688 44.023438 C 159.800781 43.96875 159.683594 43.894531 159.585938 43.792969 C 159.484375 43.691406 159.40625 43.578125 159.355469 43.449219 C 159.300781 43.316406 159.273438 43.183594 159.273438 43.042969 C 159.273438 42.898438 159.300781 42.765625 159.355469 42.632812 C 159.40625 42.503906 159.484375 42.390625 159.585938 42.289062 C 159.683594 42.1875 159.800781 42.113281 159.929688 42.058594 C 160.058594 42.003906 160.195312 41.976562 160.335938 41.976562 C 160.476562 41.976562 160.613281 42.003906 160.742188 42.058594 C 160.875 42.113281 160.988281 42.1875 161.089844 42.289062 C 161.1875 42.390625 161.265625 42.503906 161.320312 42.632812 C 161.375 42.765625 161.398438 42.898438 161.398438 43.042969 Z M 161.398438 43.042969 " fill-opacity="1" fill-rule="nonzero"/><path fill="#000000" d="M 150.460938 32.105469 C 150.460938 32.246094 150.433594 32.382812 150.382812 32.511719 C 150.328125 32.640625 150.25 32.757812 150.152344 32.855469 C 150.050781 32.957031 149.9375 33.03125 149.804688 33.085938 C 149.675781 33.140625 149.539062 33.167969 149.398438 33.167969 C 149.257812 33.167969 149.121094 33.140625 148.992188 33.085938 C 148.863281 33.03125 148.746094 32.957031 148.648438 32.855469 C 148.546875 32.757812 148.46875 32.640625 148.417969 32.511719 C 148.363281 32.382812 148.335938 32.246094 148.335938 32.105469 C 148.335938 31.964844 148.363281 31.828125 148.417969 31.695312 C 148.46875 31.566406 148.546875 31.453125 148.648438 31.351562 C 148.746094 31.253906 148.863281 31.175781 148.992188 31.121094 C 149.121094 31.066406 149.257812 31.039062 149.398438 31.039062 C 149.539062 31.039062 149.675781 31.066406 149.804688 31.121094 C 149.9375 31.175781 150.050781 31.253906 150.152344 31.351562 C 150.25 31.453125 150.328125 31.566406 150.382812 31.695312 C 150.433594 31.828125 150.460938 31.964844 150.460938 32.105469 Z M 150.460938 32.105469 " fill-opacity="1" fill-rule="nonzero"/><path fill="#000000" d="M 150.460938 43.042969 C 150.460938 43.183594 150.433594 43.316406 150.382812 43.449219 C 150.328125 43.578125 150.25 43.691406 150.152344 43.792969 C 150.050781 43.894531 149.9375 43.96875 149.804688 44.023438 C 149.675781 44.078125 149.539062 44.105469 149.398438 44.105469 C 149.257812 44.105469 149.121094 44.078125 148.992188 44.023438 C 148.863281 43.96875 148.746094 43.894531 148.648438 43.792969 C 148.546875 43.691406 148.46875 43.578125 148.417969 43.449219 C 148.363281 43.316406 148.335938 43.183594 148.335938 43.042969 C 148.335938 42.898438 148.363281 42.765625 148.417969 42.632812 C 148.46875 42.503906 148.546875 42.390625 148.648438 42.289062 C 148.746094 42.1875 148.863281 42.113281 148.992188 42.058594 C 149.121094 42.003906 149.257812 41.976562 149.398438 41.976562 C 149.539062 41.976562 149.675781 42.003906 149.804688 42.058594 C 149.9375 42.113281 150.050781 42.1875 150.152344 42.289062 C 150.25 42.390625 150.328125 42.503906 150.382812 42.632812 C 150.433594 42.765625 150.460938 42.898438 150.460938 43.042969 Z M 150.460938 43.042969 " fill-opacity="1" fill-rule="nonzero"/><path fill="#000000" d="M 161.398438 32.105469 C 161.398438 32.246094 161.375 32.382812 161.320312 32.511719 C 161.265625 32.640625 161.1875 32.757812 161.089844 32.855469 C 160.988281 32.957031 160.875 33.03125 160.742188 33.085938 C 160.613281 33.140625 160.476562 33.167969 160.335938 33.167969 C 160.195312 33.167969 160.058594 33.140625 159.929688 33.085938 C 159.800781 33.03125 159.683594 32.957031 159.585938 32.855469 C 159.484375 32.757812 159.40625 32.640625 159.355469 32.511719 C 159.300781 32.382812 159.273438 32.246094 159.273438 32.105469 C 159.273438 31.964844 159.300781 31.828125 159.355469 31.695312 C 159.40625 31.566406 159.484375 31.453125 159.585938 31.351562 C 159.683594 31.253906 159.800781 31.175781 159.929688 31.121094 C 160.058594 31.066406 160.195312 31.039062 160.335938 31.039062 C 160.476562 31.039062 160.613281 31.066406 160.742188 31.121094 C 160.875 31.175781 160.988281 31.253906 161.089844 31.351562 C 161.1875 31.453125 161.265625 31.566406 161.320312 31.695312 C 161.375 31.828125 161.398438 31.964844 161.398438 32.105469 Z M 161.398438 32.105469 " fill-opacity="1" fill-rule="nonzero"/><g clip-path="url(#5adb716d01)"><path fill="#000000" d="M 125.285156 26.730469 C 125.359375 26.769531 125.457031 26.808594 125.582031 26.851562 C 125.828125 26.933594 126.027344 26.96875 126.183594 26.957031 L 126.152344 27.054688 C 126.050781 27.070312 125.925781 27.066406 125.773438 27.039062 C 125.617188 27.019531 125.484375 27.019531 125.382812 27.039062 C 125.28125 27.0625 125.175781 27.140625 125.066406 27.273438 C 124.957031 27.410156 124.851562 27.628906 124.75 27.9375 C 124.730469 27.992188 124.714844 28.054688 124.699219 28.121094 L 128.867188 29.511719 C 128.949219 29.539062 129.019531 29.539062 129.078125 29.511719 C 129.136719 29.480469 129.179688 29.425781 129.203125 29.347656 C 129.226562 29.28125 129.238281 29.203125 129.238281 29.117188 L 129.394531 29.167969 L 128.929688 30.574219 L 128.769531 30.519531 C 128.824219 30.445312 128.859375 30.378906 128.882812 30.3125 C 128.90625 30.234375 128.90625 30.167969 128.878906 30.109375 C 128.847656 30.050781 128.792969 30.007812 128.710938 29.980469 L 124.542969 28.589844 C 124.511719 28.652344 124.492188 28.710938 124.472656 28.761719 C 124.371094 29.066406 124.324219 29.308594 124.328125 29.480469 C 124.335938 29.65625 124.375 29.78125 124.441406 29.859375 C 124.511719 29.9375 124.617188 30.015625 124.753906 30.09375 C 124.890625 30.164062 124.996094 30.234375 125.066406 30.308594 L 125.03125 30.410156 C 124.914062 30.304688 124.730469 30.210938 124.488281 30.128906 C 124.363281 30.089844 124.257812 30.0625 124.175781 30.046875 L 123.988281 30.007812 L 125.109375 26.648438 Z M 125.285156 26.730469 " fill-opacity="1" fill-rule="nonzero"/></g><path fill="#000000" d="M 133.734375 21.683594 C 133.464844 22.035156 133.140625 22.265625 132.757812 22.382812 C 132.371094 22.496094 131.972656 22.503906 131.558594 22.394531 C 131.140625 22.289062 130.742188 22.09375 130.363281 21.808594 C 130.066406 21.585938 129.804688 21.300781 129.582031 20.953125 C 129.359375 20.609375 129.238281 20.230469 129.210938 19.816406 C 129.1875 19.40625 129.324219 19.003906 129.625 18.617188 C 129.925781 18.222656 130.273438 17.980469 130.667969 17.882812 C 131.066406 17.785156 131.460938 17.796875 131.851562 17.921875 C 132.246094 18.042969 132.605469 18.226562 132.921875 18.46875 C 133.300781 18.761719 133.601562 19.085938 133.820312 19.445312 C 134.039062 19.804688 134.144531 20.179688 134.144531 20.570312 C 134.144531 20.957031 134.007812 21.328125 133.734375 21.683594 Z M 133.628906 21.601562 C 133.953125 21.183594 134.003906 20.738281 133.785156 20.269531 C 133.566406 19.800781 133.167969 19.347656 132.585938 18.90625 C 132.285156 18.683594 131.957031 18.5 131.59375 18.367188 C 131.234375 18.230469 130.886719 18.183594 130.550781 18.222656 C 130.214844 18.261719 129.941406 18.417969 129.726562 18.695312 C 129.511719 18.976562 129.441406 19.289062 129.511719 19.632812 C 129.582031 19.972656 129.738281 20.300781 129.980469 20.613281 C 130.21875 20.929688 130.480469 21.195312 130.765625 21.410156 C 131.117188 21.679688 131.472656 21.878906 131.828125 22.007812 C 132.183594 22.136719 132.519531 22.167969 132.835938 22.109375 C 133.152344 22.050781 133.417969 21.882812 133.628906 21.601562 Z M 133.628906 21.601562 " fill-opacity="1" fill-rule="nonzero"/><path fill="#000000" d="M 141.316406 15.09375 C 141.066406 15.242188 140.808594 15.332031 140.542969 15.363281 C 140.273438 15.398438 140.003906 15.351562 139.730469 15.21875 C 139.460938 15.085938 139.21875 14.847656 139.003906 14.507812 L 137.507812 12.011719 C 137.460938 11.9375 137.40625 11.890625 137.34375 11.875 C 137.28125 11.859375 137.214844 11.875 137.144531 11.914062 C 137.082031 11.953125 137.023438 12.003906 136.964844 12.066406 L 136.878906 11.925781 L 137.097656 11.804688 C 137.289062 11.699219 137.433594 11.617188 137.53125 11.558594 C 137.628906 11.5 137.765625 11.414062 137.941406 11.296875 L 138.148438 11.164062 L 138.234375 11.304688 C 138.148438 11.328125 138.078125 11.355469 138.015625 11.390625 C 137.945312 11.4375 137.902344 11.488281 137.886719 11.550781 C 137.871094 11.613281 137.882812 11.683594 137.929688 11.757812 L 139.386719 14.1875 C 139.585938 14.519531 139.800781 14.757812 140.027344 14.90625 C 140.261719 15.050781 140.484375 15.125 140.699219 15.125 C 140.914062 15.125 141.105469 15.074219 141.273438 14.96875 C 141.691406 14.722656 141.894531 14.402344 141.878906 14.011719 C 141.863281 13.621094 141.742188 13.234375 141.515625 12.855469 L 140.082031 10.460938 C 140.039062 10.390625 139.972656 10.351562 139.886719 10.347656 C 139.796875 10.34375 139.707031 10.371094 139.609375 10.429688 C 139.53125 10.472656 139.464844 10.527344 139.40625 10.59375 L 139.328125 10.460938 L 140.527344 9.738281 L 140.609375 9.875 C 140.519531 9.898438 140.441406 9.925781 140.378906 9.964844 C 140.296875 10.015625 140.242188 10.078125 140.21875 10.148438 C 140.191406 10.222656 140.199219 10.292969 140.242188 10.363281 L 141.703125 12.796875 C 141.863281 13.078125 141.96875 13.363281 142.007812 13.648438 C 142.050781 13.9375 142.015625 14.207031 141.90625 14.460938 C 141.792969 14.710938 141.597656 14.921875 141.316406 15.09375 Z M 141.316406 15.09375 " fill-opacity="1" fill-rule="nonzero"/><g clip-path="url(#32612873de)"><path fill="#000000" d="M 150.5625 11.753906 C 150.195312 11.820312 149.828125 11.769531 149.457031 11.597656 C 149.082031 11.425781 148.761719 11.164062 148.492188 10.8125 C 148.222656 10.460938 148.046875 10.066406 147.96875 9.621094 C 147.878906 9.136719 147.894531 8.6875 148.015625 8.269531 C 148.132812 7.851562 148.335938 7.503906 148.625 7.226562 C 148.914062 6.953125 149.257812 6.777344 149.660156 6.703125 C 149.886719 6.664062 150.152344 6.675781 150.464844 6.742188 C 150.78125 6.8125 151.007812 6.914062 151.152344 7.046875 L 151.160156 6.542969 L 151.273438 6.523438 L 151.535156 7.964844 L 151.398438 7.992188 C 151.355469 7.765625 151.25 7.558594 151.074219 7.363281 C 150.898438 7.167969 150.679688 7.019531 150.414062 6.921875 C 150.152344 6.824219 149.878906 6.796875 149.59375 6.851562 C 149.300781 6.90625 149.058594 7.054688 148.867188 7.304688 C 148.675781 7.550781 148.550781 7.871094 148.488281 8.253906 C 148.425781 8.636719 148.433594 9.050781 148.515625 9.496094 C 148.589844 9.917969 148.726562 10.304688 148.917969 10.652344 C 149.113281 10.996094 149.363281 11.257812 149.664062 11.433594 C 149.96875 11.613281 150.308594 11.664062 150.683594 11.597656 C 150.957031 11.546875 151.195312 11.421875 151.394531 11.21875 C 151.59375 11.019531 151.726562 10.78125 151.789062 10.503906 C 151.796875 10.472656 151.808594 10.378906 151.820312 10.226562 C 151.828125 10.09375 151.835938 9.976562 151.855469 9.882812 C 151.871094 9.789062 151.902344 9.699219 151.945312 9.621094 L 152.035156 9.605469 C 151.976562 9.679688 151.949219 9.800781 151.949219 9.96875 C 151.953125 10.136719 151.980469 10.367188 152.03125 10.65625 C 152.050781 10.757812 151.988281 10.890625 151.847656 11.046875 C 151.703125 11.203125 151.515625 11.351562 151.277344 11.484375 C 151.042969 11.621094 150.804688 11.707031 150.5625 11.753906 Z M 150.5625 11.753906 " fill-opacity="1" fill-rule="nonzero"/></g><g clip-path="url(#aa8d88a2f7)"><path fill="#000000" d="M 163.304688 7.609375 C 163.226562 7.566406 163.152344 7.542969 163.089844 7.527344 C 163.007812 7.511719 162.9375 7.523438 162.886719 7.558594 C 162.832031 7.597656 162.796875 7.65625 162.78125 7.742188 L 162.015625 11.746094 C 162 11.832031 162.011719 11.902344 162.046875 11.957031 C 162.085938 12.011719 162.144531 12.042969 162.226562 12.058594 C 162.292969 12.074219 162.371094 12.074219 162.457031 12.0625 L 162.425781 12.226562 L 160.976562 11.949219 L 161.007812 11.789062 C 161.085938 11.832031 161.160156 11.859375 161.222656 11.871094 C 161.304688 11.886719 161.375 11.875 161.425781 11.839844 C 161.480469 11.800781 161.515625 11.742188 161.53125 11.65625 L 161.953125 9.441406 L 159.558594 8.984375 L 159.136719 11.199219 C 159.121094 11.285156 159.128906 11.355469 159.167969 11.40625 C 159.203125 11.460938 159.265625 11.496094 159.351562 11.511719 C 159.417969 11.527344 159.492188 11.527344 159.578125 11.515625 L 159.550781 11.679688 L 158.09375 11.402344 L 158.125 11.238281 C 158.203125 11.28125 158.277344 11.308594 158.34375 11.320312 C 158.425781 11.335938 158.492188 11.328125 158.546875 11.289062 C 158.601562 11.253906 158.636719 11.191406 158.652344 11.105469 L 159.417969 7.101562 C 159.433594 7.015625 159.421875 6.945312 159.382812 6.894531 C 159.347656 6.839844 159.289062 6.804688 159.207031 6.789062 C 159.140625 6.777344 159.0625 6.773438 158.972656 6.78125 L 159.003906 6.625 L 160.457031 6.898438 L 160.429688 7.058594 C 160.351562 7.019531 160.277344 6.992188 160.207031 6.980469 C 160.125 6.964844 160.058594 6.976562 160.003906 7.011719 C 159.949219 7.046875 159.914062 7.109375 159.898438 7.195312 L 159.582031 8.855469 L 161.976562 9.308594 L 162.292969 7.652344 C 162.3125 7.566406 162.300781 7.496094 162.265625 7.441406 C 162.226562 7.386719 162.167969 7.355469 162.085938 7.335938 C 162.023438 7.324219 161.945312 7.324219 161.855469 7.332031 L 161.886719 7.171875 L 163.335938 7.449219 Z M 163.304688 7.609375 " fill-opacity="1" fill-rule="nonzero"/></g><path fill="#000000" d="M 169.15625 15.414062 C 168.882812 15.25 168.691406 15.074219 168.582031 14.882812 C 168.472656 14.691406 168.414062 14.46875 168.40625 14.214844 L 168.128906 14.5 L 168.015625 14.433594 L 168.933594 12.898438 L 169.085938 12.992188 C 168.78125 13.5 168.628906 13.957031 168.628906 14.363281 C 168.628906 14.765625 168.804688 15.074219 169.15625 15.285156 C 169.324219 15.386719 169.496094 15.425781 169.675781 15.410156 C 169.855469 15.390625 170.019531 15.324219 170.175781 15.214844 C 170.332031 15.101562 170.457031 14.960938 170.558594 14.792969 C 170.683594 14.585938 170.738281 14.386719 170.730469 14.191406 C 170.71875 14 170.671875 13.824219 170.582031 13.664062 C 170.492188 13.503906 170.367188 13.3125 170.203125 13.082031 C 170.03125 12.847656 169.902344 12.648438 169.816406 12.488281 C 169.730469 12.324219 169.679688 12.148438 169.671875 11.953125 C 169.660156 11.765625 169.71875 11.5625 169.84375 11.351562 C 169.972656 11.140625 170.136719 10.980469 170.335938 10.871094 C 170.539062 10.761719 170.75 10.710938 170.980469 10.71875 C 171.207031 10.730469 171.425781 10.796875 171.640625 10.925781 C 171.773438 11.003906 171.890625 11.105469 171.992188 11.226562 C 172.097656 11.351562 172.171875 11.476562 172.21875 11.601562 C 172.269531 11.722656 172.28125 11.824219 172.257812 11.902344 L 172.582031 11.503906 L 172.6875 11.566406 L 172.015625 12.691406 L 171.886719 12.613281 C 171.988281 12.445312 172.054688 12.265625 172.089844 12.074219 C 172.121094 11.882812 172.101562 11.703125 172.035156 11.527344 C 171.96875 11.355469 171.839844 11.214844 171.65625 11.101562 C 171.421875 10.960938 171.179688 10.925781 170.9375 10.992188 C 170.695312 11.0625 170.488281 11.238281 170.320312 11.519531 C 170.222656 11.683594 170.183594 11.84375 170.199219 12.003906 C 170.214844 12.164062 170.261719 12.316406 170.339844 12.460938 C 170.417969 12.605469 170.535156 12.789062 170.6875 13.007812 C 170.863281 13.257812 170.996094 13.476562 171.089844 13.65625 C 171.183594 13.839844 171.234375 14.039062 171.242188 14.257812 C 171.253906 14.472656 171.1875 14.699219 171.046875 14.933594 C 170.933594 15.121094 170.769531 15.273438 170.546875 15.394531 C 170.328125 15.515625 170.09375 15.582031 169.839844 15.589844 C 169.59375 15.597656 169.363281 15.539062 169.15625 15.414062 Z M 169.15625 15.414062 " fill-opacity="1" fill-rule="nonzero"/><path fill="#000000" d="M 177.472656 22.53125 C 177.433594 22.640625 177.417969 22.730469 177.417969 22.800781 C 177.417969 22.871094 177.441406 22.9375 177.492188 23 C 177.53125 23.046875 177.59375 23.097656 177.671875 23.144531 L 177.542969 23.25 L 176.550781 22.015625 L 176.679688 21.914062 C 176.714844 21.996094 176.75 22.066406 176.792969 22.117188 C 176.839844 22.175781 176.890625 22.214844 176.941406 22.230469 C 176.992188 22.25 177.035156 22.242188 177.070312 22.214844 C 177.097656 22.191406 177.121094 22.15625 177.132812 22.113281 L 178.085938 19.425781 L 177.195312 19.363281 L 175.816406 20.472656 C 175.746094 20.527344 175.710938 20.585938 175.703125 20.652344 C 175.695312 20.714844 175.71875 20.78125 175.769531 20.847656 C 175.816406 20.902344 175.875 20.953125 175.945312 21 L 175.816406 21.105469 L 174.890625 19.953125 L 175.019531 19.847656 C 175.050781 19.929688 175.089844 20 175.132812 20.054688 C 175.183594 20.117188 175.242188 20.152344 175.304688 20.160156 C 175.371094 20.167969 175.4375 20.144531 175.507812 20.089844 L 178.683594 17.535156 C 178.75 17.480469 178.789062 17.417969 178.792969 17.355469 C 178.800781 17.289062 178.777344 17.226562 178.726562 17.160156 C 178.683594 17.105469 178.625 17.054688 178.554688 17.003906 L 178.679688 16.902344 L 179.609375 18.054688 L 179.480469 18.160156 C 179.449219 18.078125 179.410156 18.007812 179.363281 17.953125 C 179.3125 17.890625 179.253906 17.851562 179.191406 17.847656 C 179.125 17.839844 179.058594 17.863281 178.992188 17.917969 L 177.335938 19.25 L 180.167969 19.382812 C 180.230469 19.386719 180.277344 19.375 180.304688 19.351562 C 180.339844 19.324219 180.355469 19.289062 180.355469 19.242188 C 180.351562 19.199219 180.332031 19.15625 180.292969 19.109375 C 180.257812 19.0625 180.207031 19.023438 180.144531 18.980469 L 180.269531 18.878906 L 181.097656 19.910156 L 180.972656 20.011719 C 180.941406 19.941406 180.910156 19.882812 180.871094 19.835938 C 180.816406 19.765625 180.742188 19.707031 180.652344 19.664062 C 180.558594 19.617188 180.460938 19.589844 180.359375 19.578125 L 178.601562 19.457031 Z M 177.472656 22.53125 " fill-opacity="1" fill-rule="nonzero"/><g clip-path="url(#0a2b28b9df)"><path fill="#000000" d="M 180.402344 28.570312 C 180.40625 28.664062 180.417969 28.738281 180.4375 28.796875 C 180.492188 28.957031 180.605469 29.007812 180.773438 28.949219 L 182.550781 28.332031 L 184.246094 26.523438 C 184.316406 26.445312 184.363281 26.371094 184.390625 26.300781 C 184.414062 26.226562 184.414062 26.15625 184.386719 26.078125 C 184.371094 26.035156 184.332031 25.964844 184.265625 25.871094 L 184.421875 25.820312 L 184.941406 27.316406 L 184.785156 27.371094 C 184.78125 27.261719 184.769531 27.179688 184.75 27.125 C 184.726562 27.058594 184.695312 27.011719 184.65625 26.980469 C 184.617188 26.949219 184.574219 26.941406 184.527344 26.960938 C 184.488281 26.972656 184.453125 26.996094 184.421875 27.027344 L 182.84375 28.691406 L 184.957031 29.066406 L 185.125 29.089844 C 185.167969 29.097656 185.207031 29.09375 185.246094 29.082031 C 185.300781 29.0625 185.332031 29.023438 185.34375 28.957031 C 185.351562 28.894531 185.34375 28.820312 185.316406 28.738281 C 185.285156 28.65625 185.238281 28.570312 185.171875 28.480469 L 185.324219 28.429688 L 185.746094 29.644531 L 185.59375 29.699219 C 185.589844 29.617188 185.578125 29.546875 185.558594 29.488281 C 185.523438 29.378906 185.449219 29.3125 185.34375 29.285156 C 184.96875 29.199219 184.457031 29.109375 183.8125 29.007812 C 183.339844 28.933594 182.972656 28.871094 182.722656 28.824219 L 180.945312 29.4375 C 180.777344 29.496094 180.71875 29.609375 180.773438 29.769531 C 180.796875 29.832031 180.832031 29.898438 180.886719 29.96875 L 180.730469 30.023438 L 180.246094 28.625 Z M 180.402344 28.570312 " fill-opacity="1" fill-rule="nonzero"/></g><path fill="#000000" d="M 131.238281 48.292969 C 131.15625 48.304688 131.050781 48.332031 130.925781 48.375 C 130.683594 48.457031 130.5 48.546875 130.382812 48.652344 L 130.347656 48.550781 C 130.417969 48.476562 130.523438 48.40625 130.660156 48.339844 C 130.796875 48.261719 130.902344 48.183594 130.96875 48.101562 C 131.039062 48.023438 131.078125 47.898438 131.085938 47.722656 C 131.089844 47.550781 131.042969 47.3125 130.941406 47.003906 C 130.921875 46.949219 130.898438 46.890625 130.867188 46.828125 L 126.703125 48.214844 C 126.617188 48.246094 126.5625 48.289062 126.535156 48.34375 C 126.503906 48.402344 126.503906 48.472656 126.53125 48.550781 C 126.554688 48.617188 126.589844 48.6875 126.640625 48.757812 L 126.484375 48.8125 L 126.015625 47.40625 L 126.171875 47.355469 C 126.175781 47.445312 126.1875 47.523438 126.207031 47.585938 C 126.234375 47.664062 126.277344 47.71875 126.335938 47.75 C 126.394531 47.777344 126.464844 47.777344 126.546875 47.75 L 130.710938 46.359375 C 130.699219 46.289062 130.683594 46.230469 130.664062 46.179688 C 130.5625 45.871094 130.457031 45.652344 130.347656 45.519531 C 130.238281 45.382812 130.132812 45.304688 130.027344 45.285156 C 129.925781 45.261719 129.796875 45.261719 129.640625 45.285156 C 129.488281 45.308594 129.363281 45.316406 129.261719 45.296875 L 129.230469 45.199219 C 129.386719 45.210938 129.585938 45.175781 129.832031 45.09375 C 129.957031 45.050781 130.054688 45.011719 130.128906 44.972656 L 130.304688 44.894531 L 131.425781 48.25 Z M 131.238281 48.292969 " fill-opacity="1" fill-rule="nonzero"/><path fill="#000000" d="M 131.089844 57.351562 C 130.820312 57 130.679688 56.625 130.667969 56.226562 C 130.65625 55.824219 130.757812 55.4375 130.96875 55.0625 C 131.175781 54.691406 131.46875 54.355469 131.84375 54.066406 C 132.136719 53.835938 132.480469 53.660156 132.871094 53.53125 C 133.265625 53.410156 133.664062 53.390625 134.066406 53.472656 C 134.46875 53.554688 134.820312 53.792969 135.117188 54.179688 C 135.417969 54.574219 135.566406 54.976562 135.554688 55.382812 C 135.546875 55.792969 135.429688 56.167969 135.210938 56.515625 C 134.992188 56.863281 134.722656 57.160156 134.402344 57.40625 C 134.023438 57.695312 133.628906 57.898438 133.222656 58.015625 C 132.820312 58.132812 132.429688 58.140625 132.058594 58.039062 C 131.683594 57.9375 131.359375 57.707031 131.089844 57.351562 Z M 131.191406 57.273438 C 131.515625 57.691406 131.929688 57.859375 132.4375 57.769531 C 132.949219 57.679688 133.492188 57.414062 134.066406 56.96875 C 134.359375 56.734375 134.621094 56.460938 134.847656 56.148438 C 135.070312 55.835938 135.207031 55.511719 135.257812 55.179688 C 135.308594 54.84375 135.226562 54.539062 135.015625 54.261719 C 134.796875 53.980469 134.515625 53.828125 134.167969 53.808594 C 133.820312 53.789062 133.460938 53.855469 133.097656 54.003906 C 132.730469 54.15625 132.40625 54.335938 132.125 54.554688 C 131.769531 54.824219 131.484375 55.117188 131.269531 55.425781 C 131.054688 55.738281 130.933594 56.054688 130.910156 56.375 C 130.886719 56.695312 130.980469 56.992188 131.191406 57.273438 Z M 131.191406 57.273438 " fill-opacity="1" fill-rule="nonzero"/><path fill="#000000" d="M 139.601562 64.773438 C 139.351562 64.625 139.152344 64.441406 138.996094 64.21875 C 138.839844 64 138.757812 63.738281 138.742188 63.433594 C 138.730469 63.136719 138.828125 62.808594 139.027344 62.460938 L 140.527344 59.960938 C 140.570312 59.886719 140.585938 59.816406 140.566406 59.753906 C 140.550781 59.691406 140.507812 59.636719 140.4375 59.59375 C 140.378906 59.558594 140.304688 59.53125 140.222656 59.507812 L 140.304688 59.371094 L 140.515625 59.503906 C 140.699219 59.625 140.839844 59.714844 140.9375 59.773438 C 141.035156 59.832031 141.175781 59.910156 141.359375 60.007812 L 141.574219 60.128906 L 141.488281 60.269531 C 141.429688 60.207031 141.371094 60.15625 141.3125 60.121094 C 141.238281 60.078125 141.171875 60.0625 141.109375 60.078125 C 141.046875 60.09375 140.992188 60.140625 140.949219 60.214844 L 139.492188 62.644531 C 139.292969 62.976562 139.183594 63.277344 139.160156 63.550781 C 139.140625 63.824219 139.179688 64.054688 139.28125 64.246094 C 139.382812 64.433594 139.519531 64.578125 139.691406 64.679688 C 140.105469 64.929688 140.484375 64.957031 140.820312 64.761719 C 141.160156 64.566406 141.441406 64.277344 141.667969 63.898438 L 143.105469 61.503906 C 143.148438 61.429688 143.152344 61.355469 143.113281 61.277344 C 143.078125 61.199219 143.011719 61.128906 142.910156 61.070312 C 142.835938 61.023438 142.757812 60.992188 142.671875 60.972656 L 142.75 60.835938 L 143.953125 61.558594 L 143.871094 61.691406 C 143.808594 61.625 143.746094 61.570312 143.683594 61.53125 C 143.601562 61.484375 143.519531 61.464844 143.445312 61.476562 C 143.371094 61.484375 143.308594 61.527344 143.265625 61.597656 L 141.808594 64.035156 C 141.636719 64.308594 141.433594 64.535156 141.199219 64.707031 C 140.96875 64.878906 140.714844 64.972656 140.4375 64.996094 C 140.164062 65.015625 139.882812 64.941406 139.601562 64.773438 Z M 139.601562 64.773438 " fill-opacity="1" fill-rule="nonzero"/><g clip-path="url(#8be7a42271)"><path fill="#000000" d="M 149.964844 68.535156 C 149.597656 68.46875 149.269531 68.289062 148.984375 67.996094 C 148.695312 67.707031 148.488281 67.347656 148.359375 66.925781 C 148.230469 66.5 148.207031 66.066406 148.289062 65.621094 C 148.378906 65.136719 148.550781 64.722656 148.8125 64.375 C 149.070312 64.027344 149.382812 63.773438 149.75 63.617188 C 150.117188 63.460938 150.503906 63.421875 150.902344 63.492188 C 151.128906 63.535156 151.375 63.640625 151.644531 63.816406 C 151.914062 63.988281 152.089844 64.164062 152.179688 64.34375 L 152.367188 63.875 L 152.476562 63.894531 L 152.210938 65.335938 L 152.074219 65.3125 C 152.117188 65.085938 152.089844 64.851562 151.992188 64.609375 C 151.898438 64.363281 151.746094 64.148438 151.535156 63.960938 C 151.320312 63.777344 151.074219 63.65625 150.789062 63.605469 C 150.496094 63.550781 150.214844 63.609375 149.949219 63.773438 C 149.683594 63.9375 149.453125 64.191406 149.257812 64.527344 C 149.0625 64.863281 148.925781 65.253906 148.84375 65.695312 C 148.765625 66.121094 148.757812 66.53125 148.816406 66.925781 C 148.875 67.316406 149.015625 67.648438 149.234375 67.917969 C 149.457031 68.191406 149.753906 68.363281 150.128906 68.429688 C 150.40625 68.480469 150.671875 68.449219 150.929688 68.328125 C 151.1875 68.210938 151.394531 68.035156 151.550781 67.800781 C 151.570312 67.773438 151.613281 67.691406 151.679688 67.550781 C 151.734375 67.425781 151.785156 67.324219 151.832031 67.242188 C 151.882812 67.160156 151.941406 67.089844 152.007812 67.03125 L 152.101562 67.046875 C 152.019531 67.09375 151.949219 67.195312 151.894531 67.355469 C 151.835938 67.515625 151.777344 67.738281 151.726562 68.027344 C 151.707031 68.132812 151.601562 68.230469 151.414062 68.328125 C 151.226562 68.425781 150.996094 68.496094 150.726562 68.535156 C 150.460938 68.578125 150.207031 68.578125 149.964844 68.535156 Z M 149.964844 68.535156 " fill-opacity="1" fill-rule="nonzero"/></g><g clip-path="url(#53658cffde)"><path fill="#000000" d="M 162.121094 63.179688 C 162.03125 63.171875 161.953125 63.171875 161.890625 63.183594 C 161.808594 63.199219 161.75 63.234375 161.710938 63.289062 C 161.675781 63.339844 161.664062 63.410156 161.683594 63.496094 L 162.445312 67.5 C 162.460938 67.585938 162.496094 67.648438 162.550781 67.683594 C 162.601562 67.722656 162.671875 67.730469 162.753906 67.714844 C 162.824219 67.703125 162.894531 67.675781 162.96875 67.636719 L 163 67.796875 L 161.550781 68.074219 L 161.519531 67.914062 C 161.609375 67.921875 161.6875 67.917969 161.75 67.90625 C 161.832031 67.890625 161.890625 67.855469 161.929688 67.804688 C 161.964844 67.75 161.976562 67.679688 161.957031 67.59375 L 161.535156 65.378906 L 159.140625 65.835938 L 159.5625 68.050781 C 159.582031 68.136719 159.617188 68.195312 159.667969 68.234375 C 159.722656 68.269531 159.792969 68.28125 159.878906 68.261719 C 159.945312 68.25 160.015625 68.226562 160.089844 68.183594 L 160.121094 68.34375 L 158.667969 68.621094 L 158.636719 68.460938 C 158.726562 68.46875 158.800781 68.46875 158.871094 68.457031 C 158.953125 68.441406 159.011719 68.40625 159.046875 68.351562 C 159.085938 68.296875 159.097656 68.226562 159.082031 68.140625 L 158.316406 64.136719 C 158.300781 64.050781 158.265625 63.992188 158.210938 63.953125 C 158.15625 63.917969 158.089844 63.910156 158.007812 63.925781 C 157.941406 63.9375 157.867188 63.964844 157.789062 64.003906 L 157.757812 63.84375 L 159.210938 63.566406 L 159.242188 63.726562 C 159.15625 63.71875 159.078125 63.71875 159.007812 63.734375 C 158.925781 63.75 158.867188 63.785156 158.832031 63.835938 C 158.796875 63.890625 158.785156 63.960938 158.800781 64.046875 L 159.117188 65.707031 L 161.511719 65.25 L 161.195312 63.589844 C 161.179688 63.503906 161.144531 63.441406 161.089844 63.40625 C 161.039062 63.371094 160.96875 63.359375 160.886719 63.375 C 160.824219 63.386719 160.75 63.414062 160.671875 63.453125 L 160.640625 63.292969 L 162.089844 63.019531 Z M 162.121094 63.179688 " fill-opacity="1" fill-rule="nonzero"/></g><path fill="#000000" d="M 170.871094 64.453125 C 170.59375 64.617188 170.347656 64.703125 170.128906 64.707031 C 169.910156 64.710938 169.6875 64.660156 169.457031 64.546875 L 169.578125 64.925781 L 169.464844 64.992188 L 168.546875 63.460938 L 168.699219 63.371094 C 169.003906 63.882812 169.335938 64.230469 169.691406 64.421875 C 170.046875 64.613281 170.402344 64.601562 170.753906 64.390625 C 170.921875 64.289062 171.039062 64.15625 171.105469 63.992188 C 171.175781 63.824219 171.195312 63.648438 171.171875 63.457031 C 171.144531 63.269531 171.082031 63.089844 170.980469 62.921875 C 170.859375 62.714844 170.707031 62.570312 170.53125 62.488281 C 170.359375 62.40625 170.179688 62.367188 169.996094 62.367188 C 169.816406 62.371094 169.585938 62.390625 169.308594 62.429688 C 169.019531 62.46875 168.78125 62.488281 168.597656 62.492188 C 168.417969 62.492188 168.238281 62.449219 168.0625 62.367188 C 167.886719 62.285156 167.738281 62.140625 167.613281 61.929688 C 167.484375 61.71875 167.421875 61.5 167.421875 61.269531 C 167.417969 61.039062 167.472656 60.828125 167.589844 60.628906 C 167.703125 60.433594 167.867188 60.273438 168.082031 60.144531 C 168.214844 60.066406 168.359375 60.007812 168.515625 59.976562 C 168.671875 59.945312 168.816406 59.9375 168.949219 59.949219 C 169.078125 59.964844 169.175781 60.003906 169.234375 60.058594 L 169.039062 59.589844 L 169.144531 59.523438 L 169.816406 60.644531 L 169.683594 60.722656 C 169.582031 60.554688 169.457031 60.410156 169.308594 60.292969 C 169.152344 60.175781 168.984375 60.101562 168.800781 60.082031 C 168.617188 60.058594 168.433594 60.105469 168.246094 60.214844 C 168.011719 60.355469 167.863281 60.550781 167.808594 60.796875 C 167.757812 61.042969 167.816406 61.308594 167.984375 61.589844 C 168.082031 61.75 168.203125 61.863281 168.351562 61.925781 C 168.503906 61.984375 168.660156 62.015625 168.824219 62.015625 C 168.988281 62.011719 169.203125 61.996094 169.464844 61.964844 C 169.773438 61.929688 170.027344 61.914062 170.230469 61.917969 C 170.433594 61.921875 170.636719 61.96875 170.832031 62.066406 C 171.027344 62.15625 171.195312 62.320312 171.335938 62.554688 C 171.449219 62.742188 171.507812 62.964844 171.507812 63.214844 C 171.511719 63.464844 171.457031 63.703125 171.347656 63.929688 C 171.234375 64.152344 171.078125 64.328125 170.871094 64.453125 Z M 170.871094 64.453125 " fill-opacity="1" fill-rule="nonzero"/><path fill="#000000" d="M 179.25 55.90625 C 179.363281 55.917969 179.457031 55.917969 179.523438 55.902344 C 179.589844 55.886719 179.652344 55.847656 179.699219 55.785156 C 179.742188 55.734375 179.777344 55.667969 179.808594 55.578125 L 179.933594 55.683594 L 178.941406 56.914062 L 178.816406 56.8125 C 178.890625 56.761719 178.949219 56.710938 178.988281 56.660156 C 179.035156 56.601562 179.0625 56.542969 179.070312 56.488281 C 179.074219 56.4375 179.058594 56.394531 179.023438 56.363281 C 178.996094 56.34375 178.960938 56.328125 178.910156 56.324219 L 176.082031 55.972656 L 176.214844 56.855469 L 177.59375 57.964844 C 177.660156 58.019531 177.726562 58.042969 177.792969 58.035156 C 177.855469 58.03125 177.914062 57.992188 177.96875 57.929688 C 178.011719 57.875 178.050781 57.804688 178.082031 57.726562 L 178.207031 57.828125 L 177.28125 58.980469 L 177.15625 58.878906 C 177.226562 58.828125 177.285156 58.777344 177.328125 58.722656 C 177.378906 58.65625 177.402344 58.59375 177.394531 58.527344 C 177.390625 58.460938 177.351562 58.402344 177.285156 58.347656 L 174.109375 55.792969 C 174.039062 55.738281 173.972656 55.714844 173.910156 55.722656 C 173.84375 55.730469 173.785156 55.765625 173.734375 55.832031 C 173.691406 55.886719 173.652344 55.953125 173.617188 56.03125 L 173.492188 55.929688 L 174.417969 54.78125 L 174.546875 54.882812 C 174.472656 54.929688 174.417969 54.980469 174.371094 55.035156 C 174.320312 55.101562 174.296875 55.167969 174.304688 55.230469 C 174.3125 55.296875 174.347656 55.355469 174.417969 55.410156 L 176.070312 56.742188 L 175.597656 53.945312 C 175.582031 53.882812 175.5625 53.84375 175.535156 53.820312 C 175.5 53.792969 175.460938 53.785156 175.417969 53.796875 C 175.378906 53.804688 175.339844 53.835938 175.300781 53.886719 C 175.265625 53.929688 175.234375 53.984375 175.210938 54.054688 L 175.082031 53.953125 L 175.910156 52.925781 L 176.039062 53.027344 C 175.972656 53.070312 175.925781 53.117188 175.890625 53.160156 C 175.832031 53.230469 175.789062 53.316406 175.765625 53.414062 C 175.742188 53.511719 175.734375 53.613281 175.746094 53.71875 L 176.003906 55.460938 Z M 179.25 55.90625 " fill-opacity="1" fill-rule="nonzero"/><path fill="#000000" d="M 182.992188 49.335938 C 183.042969 49.261719 183.078125 49.195312 183.101562 49.136719 C 183.15625 48.976562 183.097656 48.867188 182.929688 48.808594 L 181.152344 48.191406 L 178.699219 48.5625 C 178.597656 48.578125 178.515625 48.609375 178.453125 48.648438 C 178.386719 48.6875 178.34375 48.75 178.316406 48.828125 C 178.300781 48.867188 178.289062 48.945312 178.285156 49.058594 L 178.128906 49.007812 L 178.648438 47.511719 L 178.800781 47.5625 C 178.738281 47.652344 178.699219 47.722656 178.679688 47.777344 C 178.65625 47.84375 178.652344 47.902344 178.664062 47.949219 C 178.675781 47.996094 178.707031 48.027344 178.753906 48.046875 C 178.792969 48.058594 178.832031 48.0625 178.875 48.054688 L 181.148438 47.730469 L 179.71875 46.128906 L 179.601562 46.003906 C 179.574219 45.96875 179.539062 45.945312 179.5 45.933594 C 179.445312 45.914062 179.394531 45.925781 179.347656 45.972656 C 179.300781 46.015625 179.261719 46.078125 179.234375 46.160156 C 179.207031 46.242188 179.191406 46.339844 179.1875 46.449219 L 179.035156 46.398438 L 179.457031 45.179688 L 179.609375 45.234375 C 179.5625 45.300781 179.527344 45.363281 179.503906 45.421875 C 179.46875 45.527344 179.484375 45.625 179.550781 45.714844 C 179.792969 46.011719 180.136719 46.402344 180.578125 46.878906 C 180.90625 47.230469 181.15625 47.503906 181.324219 47.699219 L 183.101562 48.316406 C 183.269531 48.375 183.382812 48.324219 183.4375 48.160156 C 183.460938 48.097656 183.472656 48.023438 183.476562 47.9375 L 183.628906 47.992188 L 183.144531 49.390625 Z M 182.992188 49.335938 " fill-opacity="1" fill-rule="nonzero"/><path fill="#000000" d="M 124.289062 38.503906 C 124.289062 37.449219 125.144531 36.59375 126.195312 36.59375 C 127.25 36.59375 128.105469 37.449219 128.105469 38.503906 C 128.105469 39.558594 127.25 40.414062 126.195312 40.414062 C 125.140625 40.414062 124.289062 39.558594 124.289062 38.503906 Z M 124.289062 38.503906 " fill-opacity="1" fill-rule="nonzero"/><g clip-path="url(#5c3b5e0c9f)"><path fill="#000000" d="M 181.746094 38.503906 C 181.746094 37.449219 182.601562 36.59375 183.65625 36.59375 C 184.707031 36.59375 185.5625 37.449219 185.5625 38.503906 C 185.5625 39.558594 184.707031 40.414062 183.65625 40.414062 C 182.601562 40.414062 181.746094 39.558594 181.746094 38.503906 Z M 181.746094 38.503906 " fill-opacity="1" fill-rule="nonzero"/></g></svg>